# xmcd
#
# Track frame offsets: 
#        150
#        13726
#        33364
#        49446
#        66441
#        84625
#        97050
#        112735
#        139663
#        156375
#        172678
#
# Disc length: 2565 seconds
#
# Revision: 0
# Processed by: cddbd v1.5.2PL0 Copyright (c) Steve Scherf et al.
# Submitted via: ExactAudioCopy v1.0b6
#
DISCID=8f0a030b
DTITLE=Easy Rider - Artysta
DYEAR=1999
DGENRE=
TTITLE0=Jesteśmy Jak Obrazy (Artysta)
TTITLE1=Szczęście W Sobie Mam
TTITLE2=Na Czym Świat Ten Stoi
TTITLE3=Przyroda Naszą Matką
TTITLE4=Okna
TTITLE5=Choć Na Chwilę (Kolęda)
TTITLE6=Mój Dom Daleko Stąd
TTITLE7=Pragnę Moją Pieśń...
TTITLE8=Blues Rozdzierającej Samotności
TTITLE9=Tylko O Jedno Proszę Cię
TTITLE10=Ukojeniem Bądź
EXTD=
EXTT0=
EXTT1=
EXTT2=
EXTT3=
EXTT4=
EXTT5=
EXTT6=
EXTT7=
EXTT8=
EXTT9=
EXTT10=
PLAYORDER=
